<svg id='Add_Shopping_Cart_24' width='24' height='24' viewBox='0 0 24 24' xmlns='http://www.w3.org/2000/svg' xmlns:xlink='http://www.w3.org/1999/xlink'><rect width='24' height='24' stroke='none' fill='#000000' opacity='0'/>


<g transform="matrix(0.95 0 0 0.95 12 12)" >
<path style="stroke: none; stroke-width: 1; stroke-dasharray: none; stroke-linecap: butt; stroke-dashoffset: 0; stroke-linejoin: miter; stroke-miterlimit: 4; fill: rgb(0,0,0); fill-rule: nonzero; opacity: 1;" transform=" translate(-11.19, -11.5)" d="M 11 1 L 11 4 L 8 4 L 8 6 L 11 6 L 11 9 L 13 9 L 13 6 L 16 6 L 16 4 L 13 4 L 13 1 L 11 1 z M 4.4160156 1.9960938 L 1.0039062 2.0136719 L 1.0136719 4.0136719 L 3.0839844 4.0039062 L 6.3789062 11.908203 L 5.1816406 13.822266 C 4.3432852 15.161017 5.3626785 17 6.9414062 17 L 19 17 L 19 15 L 6.9414062 15 C 6.8301342 15 6.8173041 14.978071 6.8769531 14.882812 L 8.0527344 13 L 15.521484 13 C 16.246284 13 16.917475 12.604805 17.269531 11.970703 L 21.382812 4.5664062 L 19.634766 3.5957031 L 15.521484 11 L 8.1660156 11 L 4.4160156 1.9960938 z M 7 18 C 5.8954305003384135 18 5 18.895430500338414 5 20 C 5 21.104569499661586 5.8954305003384135 22 7 22 C 8.104569499661586 22 9 21.104569499661586 9 20 C 9 18.895430500338414 8.104569499661586 18 7 18 z M 17 18 C 15.895430500338414 18 15 18.895430500338414 15 20 C 15 21.104569499661586 15.895430500338414 22 17 22 C 18.104569499661586 22 19 21.104569499661586 19 20 C 19 18.895430500338414 18.104569499661586 18 17 18 z" stroke-linecap="round" />
</g>
</svg>